<svg width="42" height="26" viewBox="0 0 42 26" fill="none" xmlns="http://www.w3.org/2000/svg">
<path fill-rule="evenodd" clip-rule="evenodd" d="M37 12C37 15.9 33.9 19 30 19H10C6.1 19 3 15.9 3 12C3 8.1 6.1 5 10 5H30C33.9 5 37 8.1 37 12Z" fill="#CA7F7F" fill-opacity="0.5"/>
<g filter="url(#filter0_dd)">
<path fill-rule="evenodd" clip-rule="evenodd" d="M30 22C35.5228 22 40 17.5228 40 12C40 6.47715 35.5228 2 30 2C24.4772 2 20 6.47715 20 12C20 17.5228 24.4772 22 30 22Z" fill="#FF8B8B"/>
<path d="M39.75 12C39.75 17.3848 35.3848 21.75 30 21.75C24.6152 21.75 20.25 17.3848 20.25 12C20.25 6.61522 24.6152 2.25 30 2.25C35.3848 2.25 39.75 6.61522 39.75 12Z" stroke="url(#paint0_linear)" stroke-width="0.5"/>
<path d="M39.75 12C39.75 17.3848 35.3848 21.75 30 21.75C24.6152 21.75 20.25 17.3848 20.25 12C20.25 6.61522 24.6152 2.25 30 2.25C35.3848 2.25 39.75 6.61522 39.75 12Z" stroke="url(#paint1_linear)" stroke-width="0.5"/>
</g>
<defs>
<filter id="filter0_dd" x="18" y="0" width="24" height="26" filterUnits="userSpaceOnUse" color-interpolation-filters="sRGB">
<feFlood flood-opacity="0" result="BackgroundImageFix"/>
<feColorMatrix in="SourceAlpha" type="matrix" values="0 0 0 0 0 0 0 0 0 0 0 0 0 0 0 0 0 0 127 0"/>
<feOffset dy="2"/>
<feGaussianBlur stdDeviation="1"/>
<feColorMatrix type="matrix" values="0 0 0 0 0 0 0 0 0 0 0 0 0 0 0 0 0 0 0.24 0"/>
<feBlend mode="normal" in2="BackgroundImageFix" result="effect1_dropShadow"/>
<feColorMatrix in="SourceAlpha" type="matrix" values="0 0 0 0 0 0 0 0 0 0 0 0 0 0 0 0 0 0 127 0"/>
<feOffset/>
<feGaussianBlur stdDeviation="1"/>
<feColorMatrix type="matrix" values="0 0 0 0 0 0 0 0 0 0 0 0 0 0 0 0 0 0 0.12 0"/>
<feBlend mode="normal" in2="effect1_dropShadow" result="effect2_dropShadow"/>
<feBlend mode="normal" in="SourceGraphic" in2="effect2_dropShadow" result="shape"/>
</filter>
<linearGradient id="paint0_linear" x1="20.0979" y1="2" x2="20.0979" y2="21.8043" gradientUnits="userSpaceOnUse">
<stop stop-opacity="0"/>
<stop offset="0.8" stop-opacity="0.02"/>
<stop offset="1" stop-opacity="0.04"/>
</linearGradient>
<linearGradient id="paint1_linear" x1="20" y1="2" x2="20" y2="22" gradientUnits="userSpaceOnUse">
<stop stop-color="white" stop-opacity="0.12"/>
<stop offset="0.2" stop-color="white" stop-opacity="0.06"/>
<stop offset="1" stop-color="white" stop-opacity="0"/>
</linearGradient>
</defs>
</svg>
