<svg width="124" height="148" viewBox="0 0 124 148" fill="none" xmlns="http://www.w3.org/2000/svg">
<g clip-path="url(#clip0)">
<g filter="url(#filter0_d)">
<path d="M102.852 91.9531C101.82 102.875 97.7891 111.406 90.7579 117.547C83.7266 123.64 74.3751 126.687 62.7032 126.687C54.547 126.687 47.3516 124.765 41.1173 120.922C34.9298 117.031 30.1485 111.523 26.7735 104.398C23.3985 97.2734 21.6407 89 21.5001 79.5781V70.0156C21.5001 60.3593 23.211 51.8515 26.6329 44.4921C30.0548 37.1328 34.9532 31.4609 41.3282 27.4765C47.7501 23.4921 55.1563 21.5 63.547 21.5C74.8438 21.5 83.9376 24.5703 90.8282 30.7109C97.7188 36.8515 101.727 45.5234 102.852 56.7265H85.1329C84.2891 49.3671 82.1329 44.0703 78.6641 40.8359C75.2423 37.5546 70.2032 35.914 63.547 35.914C55.8126 35.914 49.8594 38.75 45.6876 44.4218C41.5626 50.0468 39.4532 58.3203 39.3594 69.2421V78.3124C39.3594 89.375 41.3282 97.8124 45.2657 103.625C49.2501 109.437 55.0626 112.343 62.7032 112.343C69.6876 112.343 74.9376 110.773 78.4532 107.633C81.9688 104.492 84.1954 99.2656 85.1329 91.9531H102.852Z" fill="#FF0000" fill-opacity="0.12"/>
<path d="M103.349 92.0001L103.401 91.4531H102.852H85.1329H84.6929L84.6369 91.8895C83.7065 99.1467 81.5074 104.234 78.1201 107.26C74.7316 110.287 69.6225 111.843 62.7032 111.843C55.2117 111.843 49.5612 109.006 45.679 103.344C41.8218 97.6489 39.8594 89.3274 39.8594 78.3124V69.2442C39.953 58.3735 42.0541 50.2225 46.0904 44.7181C50.1577 39.1883 55.9534 36.414 63.547 36.414C70.1267 36.414 75.0213 38.0355 78.3181 41.1968H78.318L78.3232 41.2016C81.6676 44.3201 83.7987 49.4792 84.6361 56.7835L84.6869 57.2265H85.1329H102.852H103.404L103.349 56.6766C102.214 45.3776 98.1646 36.579 91.1609 30.3376C84.1593 24.0981 74.9378 21 63.547 21C55.0738 21 47.5742 23.0129 41.0646 27.0516L41.0632 27.0525C34.5995 31.0923 29.6388 36.8414 26.1795 44.2813C22.7216 51.7181 21.0001 60.3001 21.0001 70.0156L21 79.5781L21.0001 79.5855C21.1416 89.0652 22.9106 97.4114 26.3216 104.612C29.734 111.816 34.5767 117.4 40.8511 121.345L40.8549 121.347C47.1769 125.245 54.4651 127.187 62.7032 127.187C74.4638 127.187 83.9419 124.116 91.0854 117.924L91.0868 117.923C98.2311 111.684 102.308 103.026 103.349 92.0001Z" stroke="#FF0000"/>
</g>
</g>
<defs>
<filter id="filter0_d" x="10.5" y="10.5" width="123.457" height="147.187" filterUnits="userSpaceOnUse" color-interpolation-filters="sRGB">
<feFlood flood-opacity="0" result="BackgroundImageFix"/>
<feColorMatrix in="SourceAlpha" type="matrix" values="0 0 0 0 0 0 0 0 0 0 0 0 0 0 0 0 0 0 127 0"/>
<feOffset dx="10" dy="10"/>
<feGaussianBlur stdDeviation="10"/>
<feColorMatrix type="matrix" values="0 0 0 0 1 0 0 0 0 1 0 0 0 0 1 0 0 0 0.25 0"/>
<feBlend mode="normal" in2="BackgroundImageFix" result="effect1_dropShadow"/>
<feBlend mode="normal" in="SourceGraphic" in2="effect1_dropShadow" result="shape"/>
</filter>
<clipPath id="clip0">
<rect width="124" height="148" fill="white"/>
</clipPath>
</defs>
</svg>
